<?xml version="1.0" encoding="utf-8"?>
<!-- Generator: Adobe Illustrator 22.0.1, SVG Export Plug-In . SVG Version: 6.00 Build 0)  -->
<svg version="1.1" id="Ebene_1" xmlns="http://www.w3.org/2000/svg" xmlns:xlink="http://www.w3.org/1999/xlink" x="0px" y="0px"
	 viewBox="0 0 600 600" style="enable-background:new 0 0 600 600;" xml:space="preserve">
<style type="text/css">
	.st0{fill:#455A64;}
	.st1{fill:none;stroke:#455A64;stroke-width:12;stroke-miterlimit:10;}
	.st2{fill:#4CAF50;}
	.st3{fill:none;stroke:#4CAF50;stroke-width:30;stroke-miterlimit:10;}
</style>
<g>
	<g>
		<g>
			<path class="st0" d="M300.3,585.8c-51.4,0-96.2-11.5-134.3-34.5c-38.1-23-67.6-56.6-88.5-100.8c-20.9-44.2-31.4-94.2-31.4-150
				c0-53.9,10-102.9,29.9-147.1C96,109.1,125.4,75,164.4,51c38.9-24,84.2-36,135.9-36c51.7,0,97,12,135.9,36
				c38.9,24,68.4,58.1,88.3,102.3c20,44.2,29.9,93.2,29.9,147.1c0,53.6-9.9,102.4-29.6,146.4c-19.7,44-48.9,78.1-87.4,102.5
				C398.9,573.6,353.2,585.8,300.3,585.8z M300.3,528.1c54.8,0,97.3-20.4,127.3-61.3c30-40.9,45-96.6,45-167.1
				c0-70.3-15.1-125.7-45.4-166.2c-30.2-40.5-72.5-60.8-126.9-60.8s-96.7,20.3-126.9,60.8C143.1,174,128,229.4,128,299.7
				c0,70.5,15,126.2,45,167.1C203,507.7,245.4,528.1,300.3,528.1z"/>
			<path class="st1" d="M300.3,585.8c-51.4,0-96.2-11.5-134.3-34.5c-38.1-23-67.6-56.6-88.5-100.8c-20.9-44.2-31.4-94.2-31.4-150
				c0-53.9,10-102.9,29.9-147.1C96,109.1,125.4,75,164.4,51c38.9-24,84.2-36,135.9-36c51.7,0,97,12,135.9,36
				c38.9,24,68.4,58.1,88.3,102.3c20,44.2,29.9,93.2,29.9,147.1c0,53.6-9.9,102.4-29.6,146.4c-19.7,44-48.9,78.1-87.4,102.5
				C398.9,573.6,353.2,585.8,300.3,585.8z M300.3,528.1c54.8,0,97.3-20.4,127.3-61.3c30-40.9,45-96.6,45-167.1
				c0-70.3-15.1-125.7-45.4-166.2c-30.2-40.5-72.5-60.8-126.9-60.8s-96.7,20.3-126.9,60.8C143.1,174,128,229.4,128,299.7
				c0,70.5,15,126.2,45,167.1C203,507.7,245.4,528.1,300.3,528.1z"/>
		</g>
	</g>
</g>
<g>
	<g>
		<g>
			<path class="st2" d="M398.9,450.6c-12.1,6.8-22.8,11.8-32.3,15c-9.5,3.2-19.3,5.6-29.5,7.1c-10.2,1.5-21.3,2.3-33.2,2.3
				c-49.5,0-85.8-15.9-108.8-47.7c-23-31.8-34.5-71.8-34.5-119.8c0-49.1,11.9-89.4,35.8-120.8c23.8-31.5,60.4-47.2,109.7-47.2
				c26.2,0,57,4.7,92.4,14V196c-29.7-11.1-50.1-17.6-61.3-19.6c-11.2-2-21.8-3-31.9-3c-35.2,0-60.8,13-76.6,39
				c-15.8,26-23.7,57.8-23.7,95.6c0,39.3,9.1,71.1,27.3,95.3c18.2,24.3,44,36.4,77.4,36.4c9.3,0,18.5-0.9,27.7-2.7
				c9.2-1.8,18.4-4.5,27.5-8c9.1-3.5,20.5-9.2,34-17.2V450.6z"/>
			<path class="st3" d="M398.9,450.6c-12.1,6.8-22.8,11.8-32.3,15c-9.5,3.2-19.3,5.6-29.5,7.1c-10.2,1.5-21.3,2.3-33.2,2.3
				c-49.5,0-85.8-15.9-108.8-47.7c-23-31.8-34.5-71.8-34.5-119.8c0-49.1,11.9-89.4,35.8-120.8c23.8-31.5,60.4-47.2,109.7-47.2
				c26.2,0,57,4.7,92.4,14V196c-29.7-11.1-50.1-17.6-61.3-19.6c-11.2-2-21.8-3-31.9-3c-35.2,0-60.8,13-76.6,39
				c-15.8,26-23.7,57.8-23.7,95.6c0,39.3,9.1,71.1,27.3,95.3c18.2,24.3,44,36.4,77.4,36.4c9.3,0,18.5-0.9,27.7-2.7
				c9.2-1.8,18.4-4.5,27.5-8c9.1-3.5,20.5-9.2,34-17.2V450.6z"/>
		</g>
	</g>
</g>
<g>
</g>
<g>
</g>
<g>
</g>
<g>
</g>
<g>
</g>
<g>
</g>
<g>
</g>
<g>
</g>
<g>
</g>
<g>
</g>
<g>
</g>
<g>
</g>
<g>
</g>
<g>
</g>
<g>
</g>
</svg>
