<?xml version="1.0" encoding="utf-8"?>
<!-- Generator: Adobe Illustrator 22.0.1, SVG Export Plug-In . SVG Version: 6.00 Build 0)  -->
<svg version="1.1" id="Ebene_1" xmlns="http://www.w3.org/2000/svg" xmlns:xlink="http://www.w3.org/1999/xlink" x="0px" y="0px"
	 viewBox="0 0 1000 1000" style="enable-background:new 0 0 1000 1000;" xml:space="preserve">
<style type="text/css">
	.st0{fill:#455A64;}
	.st1{fill:none;stroke:#4CAF50;stroke-miterlimit:10;}
	.st2{fill:#4CAF50;}
	.st3{fill:none;stroke:#455A64;stroke-miterlimit:10;}
</style>
<g>
	<g>
		<g>
			<path class="st0" d="M469.5,749.8c-51.3,0-95.9-11.5-133.9-34.4c-38-22.9-67.4-56.5-88.3-100.5c-20.9-44.1-31.3-93.9-31.3-149.6
				c0-53.7,9.9-102.6,29.8-146.7c19.9-44.1,49.3-78.1,88.1-102c38.8-23.9,84-35.9,135.5-35.9c51.5,0,96.7,12,135.5,35.9
				c38.8,23.9,68.2,57.9,88.1,102c19.9,44.1,29.8,93,29.8,146.7c0,53.5-9.8,102.1-29.5,145.9c-19.7,43.8-48.7,77.9-87.2,102.2
				C567.8,737.6,522.2,749.8,469.5,749.8z M469.5,692.3c54.7,0,97-20.4,126.9-61.2c29.9-40.8,44.9-96.3,44.9-166.6
				c0-70.1-15.1-125.3-45.2-165.7c-30.2-40.4-72.3-60.6-126.5-60.6s-96.4,20.2-126.5,60.6c-30.2,40.4-45.2,95.6-45.2,165.7
				c0,70.3,15,125.9,44.9,166.6C372.5,671.9,414.8,692.3,469.5,692.3z"/>
			<path class="st1" d="M469.5,749.8c-51.3,0-95.9-11.5-133.9-34.4c-38-22.9-67.4-56.5-88.3-100.5c-20.9-44.1-31.3-93.9-31.3-149.6
				c0-53.7,9.9-102.6,29.8-146.7c19.9-44.1,49.3-78.1,88.1-102c38.8-23.9,84-35.9,135.5-35.9c51.5,0,96.7,12,135.5,35.9
				c38.8,23.9,68.2,57.9,88.1,102c19.9,44.1,29.8,93,29.8,146.7c0,53.5-9.8,102.1-29.5,145.9c-19.7,43.8-48.7,77.9-87.2,102.2
				C567.8,737.6,522.2,749.8,469.5,749.8z M469.5,692.3c54.7,0,97-20.4,126.9-61.2c29.9-40.8,44.9-96.3,44.9-166.6
				c0-70.1-15.1-125.3-45.2-165.7c-30.2-40.4-72.3-60.6-126.5-60.6s-96.4,20.2-126.5,60.6c-30.2,40.4-45.2,95.6-45.2,165.7
				c0,70.3,15,125.9,44.9,166.6C372.5,671.9,414.8,692.3,469.5,692.3z"/>
		</g>
	</g>
</g>
<g>
	<g>
		<g>
			<path class="st2" d="M582.5,638.3c-14.2,8-26.8,13.8-38,17.6c-11.1,3.8-22.7,6.6-34.7,8.4c-12,1.8-25,2.7-39,2.7
				c-58.3,0-100.9-18.7-127.9-56.1c-27-37.4-40.5-84.4-40.5-140.9c0-57.7,14-105.1,42.1-142.1c28-37,71-55.5,129-55.5
				c30.8,0,67.1,5.5,108.7,16.5v50c-34.9-13-58.9-20.7-72.1-23.1c-13.2-2.4-25.7-3.6-37.5-3.6c-41.4,0-71.5,15.3-90.1,45.8
				c-18.6,30.6-27.9,68-27.9,112.4c0,46.2,10.7,83.6,32.1,112.1c21.4,28.5,51.8,42.8,91,42.8c10.9,0,21.8-1.1,32.6-3.2
				c10.8-2.1,21.6-5.2,32.4-9.4c10.7-4.1,24.1-10.9,40-20.2V638.3z"/>
			<path class="st3" d="M582.5,638.3c-14.2,8-26.8,13.8-38,17.6c-11.1,3.8-22.7,6.6-34.7,8.4c-12,1.8-25,2.7-39,2.7
				c-58.3,0-100.9-18.7-127.9-56.1c-27-37.4-40.5-84.4-40.5-140.9c0-57.7,14-105.1,42.1-142.1c28-37,71-55.5,129-55.5
				c30.8,0,67.1,5.5,108.7,16.5v50c-34.9-13-58.9-20.7-72.1-23.1c-13.2-2.4-25.7-3.6-37.5-3.6c-41.4,0-71.5,15.3-90.1,45.8
				c-18.6,30.6-27.9,68-27.9,112.4c0,46.2,10.7,83.6,32.1,112.1c21.4,28.5,51.8,42.8,91,42.8c10.9,0,21.8-1.1,32.6-3.2
				c10.8-2.1,21.6-5.2,32.4-9.4c10.7-4.1,24.1-10.9,40-20.2V638.3z"/>
		</g>
	</g>
</g>
<g>
</g>
<g>
</g>
<g>
</g>
<g>
</g>
<g>
</g>
<g>
</g>
<g>
</g>
<g>
</g>
<g>
</g>
<g>
</g>
<g>
</g>
<g>
</g>
<g>
</g>
<g>
</g>
<g>
</g>
</svg>
