<?xml version="1.0" encoding="utf-8"?>
<!-- Generator: Adobe Illustrator 22.0.1, SVG Export Plug-In . SVG Version: 6.00 Build 0)  -->
<svg version="1.1" id="Ebene_1" xmlns="http://www.w3.org/2000/svg" xmlns:xlink="http://www.w3.org/1999/xlink" x="0px" y="0px"
	 viewBox="0 0 1366 768" style="enable-background:new 0 0 1366 768;" xml:space="preserve">
<style type="text/css">
	.st0{fill:#455A64;}
	.st1{fill:none;stroke:#4CAF50;stroke-miterlimit:10;}
	.st2{fill:#4CAF50;}
	.st3{fill:none;stroke:#455A64;stroke-miterlimit:10;}
	.st4{fill:#455A64;stroke:#37474F;stroke-miterlimit:10;}
	.st5{fill:#455A64;stroke:#4CAF50;stroke-miterlimit:10;}
</style>
<g>
	<g>
		<g>
			<path class="st0" d="M557.3,348.3c-2.8,0-5-2.3-5-5V215.9c0-2.8-2.3-5-5-5h-12.6c-2.8,0-5-2.3-5-5v-11.7c0-2.8,2.3-5,5-5h12.6
				c2.8,0,5-2.3,5-5v-9c0-2.8,0.2-7.2,0.4-10c0,0,1.3-18.4,4.7-25.8c3.4-7.5,8.9-13.7,16.5-18.6c7.7-4.9,17.7-7.4,30.1-7.4
				c9.7,0,28.2,3.8,28.2,3.8c2.7,0.6,4.9,3.3,4.9,6V136c0,2.8-2.2,4.4-4.8,3.8c0,0-18.5-4.8-26.4-4.8c-4.5,0-8.6,0.7-12.3,2.1
				c-3.7,1.4-6.7,3.9-8.9,7.5c-2.2,3.6-3.1,17.4-3.1,17.4c-0.2,2.7-0.3,7.2-0.3,10v12.1c0,2.8,2.3,5,5,5h29.7c2.8,0,5,2.3,5,5v11.7
				c0,2.8-2.3,5-5,5h-29.7c-2.8,0-5,2.3-5,5v127.4c0,2.8-2.3,5-5,5H557.3z"/>
			<path class="st1" d="M557.3,348.3c-2.8,0-5-2.3-5-5V215.9c0-2.8-2.3-5-5-5h-12.6c-2.8,0-5-2.3-5-5v-11.7c0-2.8,2.3-5,5-5h12.6
				c2.8,0,5-2.3,5-5v-9c0-2.8,0.2-7.2,0.4-10c0,0,1.3-18.4,4.7-25.8c3.4-7.5,8.9-13.7,16.5-18.6c7.7-4.9,17.7-7.4,30.1-7.4
				c9.7,0,28.2,3.8,28.2,3.8c2.7,0.6,4.9,3.3,4.9,6V136c0,2.8-2.2,4.4-4.8,3.8c0,0-18.5-4.8-26.4-4.8c-4.5,0-8.6,0.7-12.3,2.1
				c-3.7,1.4-6.7,3.9-8.9,7.5c-2.2,3.6-3.1,17.4-3.1,17.4c-0.2,2.7-0.3,7.2-0.3,10v12.1c0,2.8,2.3,5,5,5h29.7c2.8,0,5,2.3,5,5v11.7
				c0,2.8-2.3,5-5,5h-29.7c-2.8,0-5,2.3-5,5v127.4c0,2.8-2.3,5-5,5H557.3z"/>
		</g>
		<g>
			<path class="st0" d="M667.6,348.3c-2.8,0-5-2.3-5-5V215.9c0-2.8-2.3-5-5-5H645c-2.8,0-5-2.3-5-5v-11.7c0-2.8,2.3-5,5-5h12.6
				c2.8,0,5-2.3,5-5v-9c0-2.8,0.2-7.2,0.4-10c0,0,1.3-18.4,4.7-25.8c3.4-7.5,8.9-13.7,16.5-18.6c7.7-4.9,17.7-7.4,30.1-7.4
				c9.7,0,28.2,3.8,28.2,3.8c2.7,0.6,4.9,3.3,4.9,6V136c0,2.8-2.2,4.4-4.8,3.8c0,0-18.5-4.8-26.4-4.8c-4.5,0-8.6,0.7-12.3,2.1
				c-3.7,1.4-6.7,3.9-8.9,7.5c-2.2,3.6-3.1,17.4-3.1,17.4c-0.2,2.7-0.3,7.2-0.3,10v12.1c0,2.8,2.3,5,5,5h29.7c2.8,0,5,2.3,5,5v11.7
				c0,2.8-2.3,5-5,5h-29.7c-2.8,0-5,2.3-5,5v127.4c0,2.8-2.3,5-5,5H667.6z"/>
			<path class="st1" d="M667.6,348.3c-2.8,0-5-2.3-5-5V215.9c0-2.8-2.3-5-5-5H645c-2.8,0-5-2.3-5-5v-11.7c0-2.8,2.3-5,5-5h12.6
				c2.8,0,5-2.3,5-5v-9c0-2.8,0.2-7.2,0.4-10c0,0,1.3-18.4,4.7-25.8c3.4-7.5,8.9-13.7,16.5-18.6c7.7-4.9,17.7-7.4,30.1-7.4
				c9.7,0,28.2,3.8,28.2,3.8c2.7,0.6,4.9,3.3,4.9,6V136c0,2.8-2.2,4.4-4.8,3.8c0,0-18.5-4.8-26.4-4.8c-4.5,0-8.6,0.7-12.3,2.1
				c-3.7,1.4-6.7,3.9-8.9,7.5c-2.2,3.6-3.1,17.4-3.1,17.4c-0.2,2.7-0.3,7.2-0.3,10v12.1c0,2.8,2.3,5,5,5h29.7c2.8,0,5,2.3,5,5v11.7
				c0,2.8-2.3,5-5,5h-29.7c-2.8,0-5,2.3-5,5v127.4c0,2.8-2.3,5-5,5H667.6z"/>
		</g>
		<g>
			<path class="st0" d="M772.5,160.4c-2.8,0-5-2.3-5-5v-18.9c0-2.8,2.3-5,5-5h18.9c2.8,0,5,2.3,5,5v18.9c0,2.8-2.3,5-5,5H772.5z
				 M772.5,348.3c-2.8,0-5-2.3-5-5V194.2c0-2.8,2.3-5,5-5h18.9c2.8,0,5,2.3,5,5v149.1c0,2.8-2.3,5-5,5H772.5z"/>
			<path class="st1" d="M772.5,160.4c-2.8,0-5-2.3-5-5v-18.9c0-2.8,2.3-5,5-5h18.9c2.8,0,5,2.3,5,5v18.9c0,2.8-2.3,5-5,5H772.5z
				 M772.5,348.3c-2.8,0-5-2.3-5-5V194.2c0-2.8,2.3-5,5-5h18.9c2.8,0,5,2.3,5,5v149.1c0,2.8-2.3,5-5,5H772.5z"/>
		</g>
		<g>
			<path class="st0" d="M963.6,338.5c0,2.8-2.2,5.5-4.9,6.2c0,0-29.6,7.3-43.1,7.3c-14,0-26.9-3.8-38.6-11.5
				c-11.7-7.7-20.6-17.8-26.5-30.3c-6-12.5-8.9-26.6-8.9-42.4c0-23.5,6.4-43,19.3-58.7c12.9-15.7,32.8-23.5,59.7-23.5
				c12.4,0,36.3,4.3,36.3,4.3c2.7,0.5,4.9,3.1,4.9,5.9v14.2c0,2.8-2.2,4.5-4.9,3.8c0,0-24.4-6-34.5-6c-16,0-28.1,6-36.2,18.1
				c-8.1,12.1-12.2,26.4-12.2,42.9c0,17.9,4.6,32.4,13.7,43.4c9.1,11.1,21,16.6,35.6,16.6c13,0,35.6-8.4,35.6-8.4
				c2.6-1,4.7,0.5,4.7,3.3V338.5z"/>
			<path class="st1" d="M963.6,338.5c0,2.8-2.2,5.5-4.9,6.2c0,0-29.6,7.3-43.1,7.3c-14,0-26.9-3.8-38.6-11.5
				c-11.7-7.7-20.6-17.8-26.5-30.3c-6-12.5-8.9-26.6-8.9-42.4c0-23.5,6.4-43,19.3-58.7c12.9-15.7,32.8-23.5,59.7-23.5
				c12.4,0,36.3,4.3,36.3,4.3c2.7,0.5,4.9,3.1,4.9,5.9v14.2c0,2.8-2.2,4.5-4.9,3.8c0,0-24.4-6-34.5-6c-16,0-28.1,6-36.2,18.1
				c-8.1,12.1-12.2,26.4-12.2,42.9c0,17.9,4.6,32.4,13.7,43.4c9.1,11.1,21,16.6,35.6,16.6c13,0,35.6-8.4,35.6-8.4
				c2.6-1,4.7,0.5,4.7,3.3V338.5z"/>
		</g>
		<g>
			<path class="st0" d="M1126.3,338.2c0,2.8-2.2,5.5-4.9,6.2c0,0-31.6,7.6-45.5,7.6c-25.1,0-44.8-8.3-59.2-25
				c-14.4-16.6-21.6-36.3-21.6-59c0-14.9,3.2-29.2,9.5-42.6c6.3-13.5,14.6-23.5,24.9-30c10.3-6.5,22.3-9.8,36.2-9.8
				c18.6,0,33.5,6.6,44.6,19.8c11.1,13.2,16,54.2,16,54.2c0.3,2.7,0.6,6.9,0.5,9.4s-2.3,4.4-5.1,4.4h-92.2c-2.8,0-4.6,2.2-4.1,4.9
				c0,0,3.8,20,8.3,27.6c4.6,7.6,10.7,13.5,18.3,17.8c7.6,4.2,17.3,6.4,29,6.4c6,0,11.9-0.5,17.8-1.5c5.9-1,22.5-6.5,22.5-6.5
				c2.6-0.9,4.7,0.7,4.7,3.4V338.2z M1027,246.7c-0.5,2.7,1.3,4.9,4,4.9h62.2c2.8,0,4.7-2.2,4.4-5c0,0-2.6-22.3-9-29.2
				c-6.4-6.8-14.5-10.3-24.5-10.3c-11.4,0-20.2,3.7-26.6,11.1C1031.2,225.7,1027,246.7,1027,246.7z"/>
			<path class="st1" d="M1126.3,338.2c0,2.8-2.2,5.5-4.9,6.2c0,0-31.6,7.6-45.5,7.6c-25.1,0-44.8-8.3-59.2-25
				c-14.4-16.6-21.6-36.3-21.6-59c0-14.9,3.2-29.2,9.5-42.6c6.3-13.5,14.6-23.5,24.9-30c10.3-6.5,22.3-9.8,36.2-9.8
				c18.6,0,33.5,6.6,44.6,19.8c11.1,13.2,16,54.2,16,54.2c0.3,2.7,0.6,6.9,0.5,9.4s-2.3,4.4-5.1,4.4h-92.2c-2.8,0-4.6,2.2-4.1,4.9
				c0,0,3.8,20,8.3,27.6c4.6,7.6,10.7,13.5,18.3,17.8c7.6,4.2,17.3,6.4,29,6.4c6,0,11.9-0.5,17.8-1.5c5.9-1,22.5-6.5,22.5-6.5
				c2.6-0.9,4.7,0.7,4.7,3.4V338.2z M1027,246.7c-0.5,2.7,1.3,4.9,4,4.9h62.2c2.8,0,4.7-2.2,4.4-5c0,0-2.6-22.3-9-29.2
				c-6.4-6.8-14.5-10.3-24.5-10.3c-11.4,0-20.2,3.7-26.6,11.1C1031.2,225.7,1027,246.7,1027,246.7z"/>
		</g>
	</g>
</g>
<g>
	<g>
		<g>
			<path class="st2" d="M617.2,556.6c-1-2.6-3.5-3.3-5.6-1.6c0,0-10.5,8.4-17.6,11.8c-7.1,3.3-14,5-20.7,5c-9.5,0-18.3-3.1-26.5-9.3
				c-8.2-6.2-12.3-15.2-12.3-27.1c0-13,5.7-23.8,17.1-32.3c11.4-8.5,49.6-12.3,49.6-12.3c2.7-0.3,6.3-0.5,7.8-0.5s2.8-2.3,2.8-5v-6
				c0-2.8-0.2-7.2-0.4-10c0,0-0.5-6-2.2-8.9c-1.7-2.9-4.4-5.2-8.1-6.8c-3.7-1.6-8.3-2.4-13.7-2.4c-12.7,0-36.8,9.8-36.8,9.8
				c-2.5,1-4.6-0.4-4.6-3.1V448c0-2.8,2.1-5.7,4.8-6.5c0,0,27.1-8.4,41.6-8.4c7.9,0,15.2,1.2,21.8,3.7c6.6,2.5,11.9,6.4,15.9,11.7
				c4,5.3,5.4,20.7,5.4,20.7c0.3,2.7,0.5,7.2,0.5,10v50.1c0,2.8,0.1,7.2,0.2,10c0,0,0.3,6.2,1.4,8.5c1.1,2.3,2.5,4.1,4.5,5.3
				c1.9,1.2,4.1,1.8,6.7,1.8c1.1,0,1.1,0,1.1,0c2-0.3,3.9,1.7,4.2,4.5l0.4,3.4c0.4,2.7-1.5,5.7-4.1,6.6c0,0-6.7,2.3-13.3,2.3
				c-4.4,0-8.6-1.4-12.7-4.3C620.2,564.7,617.2,556.6,617.2,556.6z M607.9,541.7c2.2-1.6,4.1-5.1,4.1-7.9v-24.3
				c0-2.8-1.8-5.1-3.9-5.1s-6.2,0.1-8.9,0.4c0,0-18.7,1.9-27.4,6.8s-13.1,11.5-13.1,19.9c0,5.8,2.1,10.7,6.4,14.6c4.3,4,9.3,6,15,6
				c5.2,0,10.4-1.1,15.7-3.4C601.1,546.6,607.9,541.7,607.9,541.7z"/>
			<path class="st3" d="M617.2,556.6c-1-2.6-3.5-3.3-5.6-1.6c0,0-10.5,8.4-17.6,11.8c-7.1,3.3-14,5-20.7,5c-9.5,0-18.3-3.1-26.5-9.3
				c-8.2-6.2-12.3-15.2-12.3-27.1c0-13,5.7-23.8,17.1-32.3c11.4-8.5,49.6-12.3,49.6-12.3c2.7-0.3,6.3-0.5,7.8-0.5s2.8-2.3,2.8-5v-6
				c0-2.8-0.2-7.2-0.4-10c0,0-0.5-6-2.2-8.9c-1.7-2.9-4.4-5.2-8.1-6.8c-3.7-1.6-8.3-2.4-13.7-2.4c-12.7,0-36.8,9.8-36.8,9.8
				c-2.5,1-4.6-0.4-4.6-3.1V448c0-2.8,2.1-5.7,4.8-6.5c0,0,27.1-8.4,41.6-8.4c7.9,0,15.2,1.2,21.8,3.7c6.6,2.5,11.9,6.4,15.9,11.7
				c4,5.3,5.4,20.7,5.4,20.7c0.3,2.7,0.5,7.2,0.5,10v50.1c0,2.8,0.1,7.2,0.2,10c0,0,0.3,6.2,1.4,8.5c1.1,2.3,2.5,4.1,4.5,5.3
				c1.9,1.2,4.1,1.8,6.7,1.8c1.1,0,1.1,0,1.1,0c2-0.3,3.9,1.7,4.2,4.5l0.4,3.4c0.4,2.7-1.5,5.7-4.1,6.6c0,0-6.7,2.3-13.3,2.3
				c-4.4,0-8.6-1.4-12.7-4.3C620.2,564.7,617.2,556.6,617.2,556.6z M607.9,541.7c2.2-1.6,4.1-5.1,4.1-7.9v-24.3
				c0-2.8-1.8-5.1-3.9-5.1s-6.2,0.1-8.9,0.4c0,0-18.7,1.9-27.4,6.8s-13.1,11.5-13.1,19.9c0,5.8,2.1,10.7,6.4,14.6c4.3,4,9.3,6,15,6
				c5.2,0,10.4-1.1,15.7-3.4C601.1,546.6,607.9,541.7,607.9,541.7z"/>
		</g>
		<g>
			<path class="st2" d="M774.1,568.7c-2.8,0-5-2.3-5-5v-14.9c0-2.8-1.3-3.1-2.8-0.9c0,0-8.2,12.1-15.5,16.8c-7.4,4.7-15.9,7-25.8,7
				c-16.3,0-28.9-6-37.9-18c-9-12-13.5-27.8-13.5-47.2c0-21,5-38.5,15.1-52.5c10.1-14,23.9-21,41.3-21c5.1,0,10,0.6,14.6,1.8
				c4.6,1.2,8.8,3,12.4,5.2s8.6,7.4,8.6,7.4c1.9,2,3.4,1.4,3.4-1.4V381c0-2.8,2.3-5,5-5h14c2.8,0,5,2.3,5,5v182.7c0,2.8-2.3,5-5,5
				H774.1z M769.1,472.7c0-2.8-1.8-6.4-3.9-8.1c0,0-11-8.8-15.8-10.6c-4.8-1.8-10.1-2.8-15.7-2.8c-11.7,0-20.4,4.9-26.1,14.8
				c-5.7,9.9-8.5,22.6-8.5,38.1c0,14.4,2.5,25.8,7.5,34.1c5,8.3,12.8,12.5,23.3,12.5c6.7,0,13.3-1.8,19.8-5.5
				c6.5-3.7,15.8-12.9,15.8-12.9c2-1.9,3.5-5.8,3.5-8.5V472.7z"/>
			<path class="st3" d="M774.1,568.7c-2.8,0-5-2.3-5-5v-14.9c0-2.8-1.3-3.1-2.8-0.9c0,0-8.2,12.1-15.5,16.8c-7.4,4.7-15.9,7-25.8,7
				c-16.3,0-28.9-6-37.9-18c-9-12-13.5-27.8-13.5-47.2c0-21,5-38.5,15.1-52.5c10.1-14,23.9-21,41.3-21c5.1,0,10,0.6,14.6,1.8
				c4.6,1.2,8.8,3,12.4,5.2s8.6,7.4,8.6,7.4c1.9,2,3.4,1.4,3.4-1.4V381c0-2.8,2.3-5,5-5h14c2.8,0,5,2.3,5,5v182.7c0,2.8-2.3,5-5,5
				H774.1z M769.1,472.7c0-2.8-1.8-6.4-3.9-8.1c0,0-11-8.8-15.8-10.6c-4.8-1.8-10.1-2.8-15.7-2.8c-11.7,0-20.4,4.9-26.1,14.8
				c-5.7,9.9-8.5,22.6-8.5,38.1c0,14.4,2.5,25.8,7.5,34.1c5,8.3,12.8,12.5,23.3,12.5c6.7,0,13.3-1.8,19.8-5.5
				c6.5-3.7,15.8-12.9,15.8-12.9c2-1.9,3.5-5.8,3.5-8.5V472.7z"/>
		</g>
		<g>
			<path class="st2" d="M940.2,559.5c0,2.8-2.2,5.5-4.9,6.2c0,0-25.5,6.2-37.1,6.2c-20.9,0-37.3-6.9-49.3-20.8s-18-30.3-18-49.1
				c0-12.5,2.6-24.3,7.9-35.5c5.3-11.2,12.2-19.6,20.7-25c8.5-5.5,18.6-8.2,30.2-8.2c15.5,0,27.9,5.5,37.2,16.5
				c9.2,11,13.3,44.4,13.3,44.4c0.3,2.7,0.6,6.6,0.5,8.6s-2.3,3.7-5.1,3.7h-75.2c-2.8,0-4.6,2.2-4.1,4.9c0,0,3,15.8,6.8,22.2
				s8.9,11.3,15.2,14.8c6.3,3.5,14.4,5.3,24.2,5.3c5,0,9.9-0.4,14.9-1.3c4.9-0.9,18-5.2,18-5.2c2.6-0.9,4.7,0.7,4.7,3.4V559.5z
				 M857.6,483.3c-0.5,2.7,1.3,4.9,4,4.9h50.2c2.8,0,4.7-2.2,4.4-5c0,0-2.1-17.8-7.4-23.5c-5.3-5.7-12.1-8.5-20.4-8.5
				c-9.5,0-16.9,3.1-22.2,9.2C860.9,466.6,857.6,483.3,857.6,483.3z"/>
			<path class="st3" d="M940.2,559.5c0,2.8-2.2,5.5-4.9,6.2c0,0-25.5,6.2-37.1,6.2c-20.9,0-37.3-6.9-49.3-20.8s-18-30.3-18-49.1
				c0-12.5,2.6-24.3,7.9-35.5c5.3-11.2,12.2-19.6,20.7-25c8.5-5.5,18.6-8.2,30.2-8.2c15.5,0,27.9,5.5,37.2,16.5
				c9.2,11,13.3,44.4,13.3,44.4c0.3,2.7,0.6,6.6,0.5,8.6s-2.3,3.7-5.1,3.7h-75.2c-2.8,0-4.6,2.2-4.1,4.9c0,0,3,15.8,6.8,22.2
				s8.9,11.3,15.2,14.8c6.3,3.5,14.4,5.3,24.2,5.3c5,0,9.9-0.4,14.9-1.3c4.9-0.9,18-5.2,18-5.2c2.6-0.9,4.7,0.7,4.7,3.4V559.5z
				 M857.6,483.3c-0.5,2.7,1.3,4.9,4,4.9h50.2c2.8,0,4.7-2.2,4.4-5c0,0-2.1-17.8-7.4-23.5c-5.3-5.7-12.1-8.5-20.4-8.5
				c-9.5,0-16.9,3.1-22.2,9.2C860.9,466.6,857.6,483.3,857.6,483.3z"/>
		</g>
		<g>
			<path class="st2" d="M985.7,568.7c-2.8,0-5-2.3-5-5V441.2c0-2.8,2.3-5,5-5h14c2.8,0,5,2.3,5,5V456c0,2.8,1.4,3.2,3.1,1.1
				c0,0,8.1-10.4,15.7-15.8c7.6-5.4,16.4-8.1,26.4-8.1c5.8,0,10.8,0.9,15.1,2.8c4.3,1.9,8.2,4.5,11.7,7.9c3.5,3.4,7.4,12.5,7.4,12.5
				c1.1,2.5,3.3,2.8,5,0.6c0,0,8.1-10.6,15.6-16c7.5-5.3,16.1-8,25.8-8c9.4,0,17.9,2.9,25.5,8.8c7.6,5.9,10.6,25.5,10.6,25.5
				c0.4,2.7,0.8,7.2,0.8,9.9v86.5c0,2.8-2.3,5-5,5h-14c-2.8,0-5-2.3-5-5V481c0-2.8-0.3-7.2-0.6-10c0,0-1.2-9.8-4.9-13
				c-3.7-3.2-7.9-4.8-12.4-4.8c-5.7,0-11.6,1.8-17.8,5.3c-6.2,3.6-18.2,17.4-18.2,17.4c-1.8,2.1-3.3,6-3.3,8.8v78.9c0,2.8-2.3,5-5,5
				h-14c-2.8,0-5-2.3-5-5V481c0-2.8-0.3-7.2-0.6-10c0,0-1.2-9.9-5-13.1c-3.7-3.2-8-4.8-12.7-4.8c-5.8,0-11.6,1.8-17.5,5.3
				c-5.9,3.5-18.1,17.6-18.1,17.6c-1.8,2.1-3.3,6-3.3,8.8v78.9c0,2.8-2.3,5-5,5H985.7z"/>
			<path class="st3" d="M985.7,568.7c-2.8,0-5-2.3-5-5V441.2c0-2.8,2.3-5,5-5h14c2.8,0,5,2.3,5,5V456c0,2.8,1.4,3.2,3.1,1.1
				c0,0,8.1-10.4,15.7-15.8c7.6-5.4,16.4-8.1,26.4-8.1c5.8,0,10.8,0.9,15.1,2.8c4.3,1.9,8.2,4.5,11.7,7.9c3.5,3.4,7.4,12.5,7.4,12.5
				c1.1,2.5,3.3,2.8,5,0.6c0,0,8.1-10.6,15.6-16c7.5-5.3,16.1-8,25.8-8c9.4,0,17.9,2.9,25.5,8.8c7.6,5.9,10.6,25.5,10.6,25.5
				c0.4,2.7,0.8,7.2,0.8,9.9v86.5c0,2.8-2.3,5-5,5h-14c-2.8,0-5-2.3-5-5V481c0-2.8-0.3-7.2-0.6-10c0,0-1.2-9.8-4.9-13
				c-3.7-3.2-7.9-4.8-12.4-4.8c-5.7,0-11.6,1.8-17.8,5.3c-6.2,3.6-18.2,17.4-18.2,17.4c-1.8,2.1-3.3,6-3.3,8.8v78.9c0,2.8-2.3,5-5,5
				h-14c-2.8,0-5-2.3-5-5V481c0-2.8-0.3-7.2-0.6-10c0,0-1.2-9.9-5-13.1c-3.7-3.2-8-4.8-12.7-4.8c-5.8,0-11.6,1.8-17.5,5.3
				c-5.9,3.5-18.1,17.6-18.1,17.6c-1.8,2.1-3.3,6-3.3,8.8v78.9c0,2.8-2.3,5-5,5H985.7z"/>
		</g>
		<g>
			<path class="st2" d="M1226.9,617c-2.8,0-4.1-2.1-3-4.6l17.4-39.1c1.1-2.5,1.2-6.7,0.2-9.2l-47.7-123.3c-1-2.6,0.4-4.7,3.2-4.7h16
				c2.8,0,5.8,2.1,6.8,4.7l34.4,90.4c1,2.6,2.6,2.6,3.7,0l36.7-90.5c1-2.5,4.1-4.6,6.9-4.6h12.7c2.8,0,4.2,2.1,3.1,4.6l-68.6,171.5
				c-1,2.6-4.1,4.6-6.9,4.6H1226.9z"/>
			<path class="st3" d="M1226.9,617c-2.8,0-4.1-2.1-3-4.6l17.4-39.1c1.1-2.5,1.2-6.7,0.2-9.2l-47.7-123.3c-1-2.6,0.4-4.7,3.2-4.7h16
				c2.8,0,5.8,2.1,6.8,4.7l34.4,90.4c1,2.6,2.6,2.6,3.7,0l36.7-90.5c1-2.5,4.1-4.6,6.9-4.6h12.7c2.8,0,4.2,2.1,3.1,4.6l-68.6,171.5
				c-1,2.6-4.1,4.6-6.9,4.6H1226.9z"/>
		</g>
	</g>
</g>
<g>
	<g>
		<g>
			<path class="st2" d="M387.5,548.3c-14.2,8-26.8,13.8-38,17.6c-11.1,3.8-22.7,6.6-34.7,8.4c-12,1.8-25,2.7-39,2.7
				c-58.3,0-100.9-18.7-127.9-56.1c-27-37.4-40.5-84.4-40.5-140.9c0-57.7,14-105.1,42.1-142.1c28-37,71-55.5,129-55.5
				c30.8,0,67.1,5.5,108.7,16.5v50c-34.9-13-58.9-20.7-72.1-23.1c-13.2-2.4-25.7-3.6-37.5-3.6c-41.4,0-71.5,15.3-90.1,45.8
				c-18.6,30.6-27.9,68-27.9,112.4c0,46.2,10.7,83.6,32.1,112.1c21.4,28.5,51.8,42.8,91,42.8c10.9,0,21.8-1.1,32.6-3.2
				c10.8-2.1,21.6-5.2,32.4-9.4c10.7-4.1,24.1-10.9,40-20.2V548.3z"/>
			<path class="st3" d="M387.5,548.3c-14.2,8-26.8,13.8-38,17.6c-11.1,3.8-22.7,6.6-34.7,8.4c-12,1.8-25,2.7-39,2.7
				c-58.3,0-100.9-18.7-127.9-56.1c-27-37.4-40.5-84.4-40.5-140.9c0-57.7,14-105.1,42.1-142.1c28-37,71-55.5,129-55.5
				c30.8,0,67.1,5.5,108.7,16.5v50c-34.9-13-58.9-20.7-72.1-23.1c-13.2-2.4-25.7-3.6-37.5-3.6c-41.4,0-71.5,15.3-90.1,45.8
				c-18.6,30.6-27.9,68-27.9,112.4c0,46.2,10.7,83.6,32.1,112.1c21.4,28.5,51.8,42.8,91,42.8c10.9,0,21.8-1.1,32.6-3.2
				c10.8-2.1,21.6-5.2,32.4-9.4c10.7-4.1,24.1-10.9,40-20.2V548.3z"/>
		</g>
	</g>
</g>
<line class="st4" x1="1326" y1="362.5" x2="815" y2="362.5"/>
<path class="st5" d="M498.1,228.6c-19.9-44.1-49.3-78.1-88.1-102c-38.8-23.9-84-35.9-135.5-35.9c-51.5,0-96.7,12-135.5,35.9
	c-38.8,23.9-68.2,57.9-88.1,102c-19.9,44.1-29.8,93-29.8,146.7c0,55.7,10.4,105.5,31.3,149.6c20.9,44.1,50.3,77.6,88.3,100.5
	c38,22.9,82.6,34.4,133.9,34.4c52.7,0,98.3-12.1,136.8-36.4c38.5-24.3,67.5-58.3,87.2-102.2c19.6-43.8,29.5-92.5,29.5-145.9
	C527.9,321.5,518,272.7,498.1,228.6z M452.5,491.3c-15.7,34.9-38.8,62.1-69.5,81.4c-22.2,14-47.4,22.9-75.5,26.8
	c-10.5,1.8-21.5,2.7-33,2.7c-10.3,0-20.1-0.7-29.5-2.2c-28.9-3.4-54.8-12-77.6-25.8c-30.3-18.3-53.7-45-70.3-80.1
	c-16.6-35.1-25-74.9-25-119.2c0-42.8,7.9-81.8,23.8-116.9c15.9-35.1,39.3-62.2,70.2-81.3c28-17.3,60.2-26.7,96.5-28.3
	c3.9-0.2,7.9-0.4,11.9-0.4c4.9,0,9.8,0.2,14.5,0.5c0.1,0,0.3,0,0.4,0c0,0,0.1,0,0.1,0c34.7,2.1,65.5,11.5,92.5,28.1
	c30.9,19.1,54.3,46.2,70.2,81.3C468.1,293.3,476,332.2,476,375C476,417.6,468.2,456.4,452.5,491.3z"/>
<g>
</g>
<g>
</g>
<g>
</g>
<g>
</g>
<g>
</g>
<g>
</g>
<g>
</g>
<g>
</g>
<g>
</g>
<g>
</g>
<g>
</g>
<g>
</g>
<g>
</g>
<g>
</g>
<g>
</g>
</svg>
